<svg clip-rule="evenodd" fill-rule="evenodd" image-rendering="optimizeQuality" shape-rendering="geometricPrecision" text-rendering="geometricPrecision" viewBox="0 0 253990 253990" xmlns="http://www.w3.org/2000/svg" id="fi_14026693"><g id="图层_x0020_1"><circle fill="#48b02c" r="178583" transform="matrix(.503 -.503 .503 .503 126995 126995)"></circle><g fill="#fff"><path d="m110979 104991 8 8 8 8 7 8 8 7 8 8 8 8 7 8 38106 38105 34509 34509c1648 1648 1648 4338 0 5986l-1 1c-1648 1648-4338 1648-5986 0l-34509-34509-38169-38168-34508-34509c-1637-1636-1652-4296-35-5952 1620-1658 4286-1700 5959-95 41 39 85 82 126 123z"></path><path d="m104991 143142 8-7 8-8 8-8 7-8 8-7 8-8 8-8 38105-38105 34509-34509c1648-1648 4338-1648 5986 0l1 1c1648 1648 1648 4338 0 5986l-34509 34509-38168 38168-34509 34509c-1636 1636-4296 1652-5952 35-1658-1620-1700-4286-95-5959 39-41 82-85 123-126z"></path></g></g></svg>