<svg clip-rule="evenodd" fill-rule="evenodd" image-rendering="optimizeQuality" shape-rendering="geometricPrecision" text-rendering="geometricPrecision" viewBox="0 0 2.54 2.54" xmlns="http://www.w3.org/2000/svg"><g id="&#x56FE;&#x5C42;_x0020_1"><circle cx="1.27" cy="1.27" fill="#48b02c" r="1.27"/><g id="_143772952" fill="#fff"><path id="_143773360" d="m.63499.65436h1.27002c.06994 0 .12699.05705.12699.12699v.00002c0 .06994-.05705.12699-.12699.12699h-1.27002c-.06994 0-.12699-.05705-.12699-.12699v-.00002c0-.06994.05705-.12699.12699-.12699z"/><path id="_143773096" d="m.63499 1.143h1.27002c.06994 0 .12699.05705.12699.12699v.00002c0 .06994-.05705.12699-.12699.12699h-1.27002c-.06994 0-.12699-.05705-.12699-.12699v-.00002c0-.06994.05705-.12699.12699-.12699z"/><path id="_143773456" d="m.63499 1.63164h1.27002c.06994 0 .12699.05705.12699.12699v.00002c0 .06994-.05705.12699-.12699.12699h-1.27002c-.06994 0-.12699-.05705-.12699-.12699v-.00002c0-.06994.05705-.12699.12699-.12699z"/></g></g></svg>