<svg clip-rule="evenodd" fill-rule="evenodd" height="512" image-rendering="optimizeQuality" shape-rendering="geometricPrecision" text-rendering="geometricPrecision" viewBox="0 0 1707 1707" width="512" xmlns="http://www.w3.org/2000/svg" id="fi_8521911"><g id="Layer_x0020_1"><path d="m795 512c-4-35-13-61-19-67-103 34-131-55-150-60 0 0-2 0-4 2-108 61-80 200-30 239 23 18 48 28 76 28 78 0 135-64 127-142zm787 861h-638v188h261c12 0 22 10 22 23v100c0 12-10 22-22 22h-703c-13 0-23-10-23-22v-100c0-13 10-23 23-23h260v-188h-638c-25 0-46-21-46-46v-908c0-26 21-47 46-47h153v-247c0-69 59-125 131-125h891c72 0 131 56 131 125v247h152c26 0 47 21 47 47v908c0 25-21 46-47 46zm-1305-955h-153v779h1459l-1-779h-152v545c0 69-59 125-131 125h-891c-72 0-131-56-131-125zm-153 824-1 84 1459 1 1-85zm684 319h91v-188h-91zm-283 100h657v-54h-657zm860-353h-63c-29 0-29-46 0-46h63c29 0 29 46 0 46zm133 0h-63c-29 0-29-46 0-46h63c29 0 29 46 0 46zm-1110-1262c-47 0-86 35-86 79v56h1062v-56c0-44-38-79-85-79zm-86 180v737c0 44 39 79 86 79h891c47 0 85-35 85-79v-737zm186-90h-76c-30 0-30-45 0-45h76c29 0 29 45 0 45zm155 0h-77c-29 0-29-45 0-45h77c29 0 29 45 0 45zm154 0h-76c-30 0-30-45 0-45h76c29 0 29 45 0 45zm149 868h-593c-12 0-23-10-23-23v-130c0-85 69-154 154-154h37l12-45c-30-32-50-78-50-143 0 0-1-1 0-3-34-59-15-150 24-197 27-31 61-43 96-32 73-24 139-12 183 31 48 47 61 125 35 204 5 63-20 105-42 129-4 5-8 9-12 13l11 43h38c84 0 153 69 153 154v130c0 13-10 23-23 23zm-382-293 84 68 87-68-8-30c-48 23-106 25-154 0zm-188 248h65v-67c0-29 45-29 45 0v67h327v-67c0-29 46-29 46 0v67h65v-108c0-60-49-108-108-108h-47l-107 83c-8 6-20 6-28-1l-103-82h-47c-60 0-108 48-108 108zm916-475h-232c-13 0-23-10-23-23v-134c0-13 10-23 23-23h232c13 0 23 10 23 23v134c0 13-10 23-23 23zm-210-46h187v-88h-187zm231 181h-275c-29 0-29-45 0-45h275c30 0 30 45 0 45zm0 115h-275c-29 0-29-45 0-45h275c30 0 30 45 0 45zm0 115h-275c-29 0-29-45 0-45h275c30 0 30 45 0 45zm0 116h-275c-29 0-29-46 0-46h275c30 0 30 46 0 46zm-526-553c-11-88-87-121-177-89-22 7-35-24-68 15-15 19-26 45-29 72 14-22 56-70 93-70 57 0 53 89 138 61 16-4 32 0 43 11z" fill="#333"></path><path d="m1102 350v88h187v-88z" fill="#75f2c8"></path><path d="m1057 461v-134c0-13 10-23 23-23h232c13 0 23 10 23 23v134c0 13-10 23-23 23h-232c-13 0-23-10-23-23zm-251-153c48 47 61 125 35 204 5 63-20 105-42 129-4 5-8 9-12 13l11 43h38c84 0 153 69 153 154v130c0 13-10 23-23 23h-593c-12 0-23-10-23-23v-130c0-85 69-154 154-154h37l12-45c-30-32-50-78-50-143 0 0-1-1 0-3-34-59-15-150 24-197 27-31 61-43 96-32 73-24 139-12 183 31zm252 311c-29 0-29-45 0-45h275c30 0 30 45 0 45zm0 70h275c30 0 30 45 0 45h-275c-29 0-29-45 0-45zm0 115h275c30 0 30 45 0 45h-275c-29 0-29-45 0-45zm0 115h275c30 0 30 46 0 46h-275c-29 0-29-46 0-46zm-650 123h891c47 0 85-35 85-79v-737h-1062v737c0 44 39 79 86 79z" fill="#ffe4af"></path><path d="m807 412c-11-88-87-121-177-89-22 7-35-24-68 15-15 19-26 45-29 72 14-22 56-70 93-70 57 0 53 89 138 61 16-4 32 0 43 11z" fill="#58535a"></path><path d="m776 445c-103 34-131-55-150-60 0 0-2 0-4 2-108 61-80 200-30 239 23 18 48 28 76 28 78 0 135-64 127-142-4-35-13-61-19-67z" fill="#ff9e5c"></path><path d="m747 681c-48 23-106 25-154 0l-9 30 84 68 87-68z" fill="#ff9e5c"></path><path d="m654 825-103-82h-47c-60 0-108 48-108 108v108h65v-67c0-29 45-29 45 0v67h327v-67c0-29 46-29 46 0v67h65v-108c0-60-49-108-108-108h-47l-107 83c-8 6-20 6-28-1z" fill="#ff3131"></path><path d="m322 181h1062v-56c0-44-38-79-85-79h-891c-47 0-86 35-86 79zm495-90c29 0 29 45 0 45h-76c-30 0-30-45 0-45zm-154 0c29 0 29 45 0 45h-77c-29 0-29-45 0-45zm-155 0c29 0 29 45 0 45h-76c-30 0-30-45 0-45z" fill="#bc4d4d"></path><path d="m1299 1088h-891c-72 0-131-56-131-125v-545h-153v779h1459l-1-779h-152v545c0 69-59 125-131 125z" fill="#75f2c8"></path><g fill="#bc4d4d"><path d="m1583 1242h-1459l-1 84 1459 1zm-261 66c-29 0-29-46 0-46h63c29 0 29 46 0 46zm133 0c-29 0-29-46 0-46h63c29 0 29 46 0 46z"></path><path d="m899 1561v-188h-91v188z"></path><path d="m1182 1607h-657v54h657z"></path></g></g></svg>